<svg width="20" height="20" viewBox="0 0 20 20" fill="none" xmlns="http://www.w3.org/2000/svg">
<path d="M18.303 7.63135C18.6117 8.55749 18.6813 9.69804 18.5143 10.6562C18.4534 11.0148 18.4374 11.3482 18.4301 11.7131C18.395 13.4152 17.3954 15.0974 16.1389 16.2034C15.812 16.4889 15.4533 16.742 15.0974 16.9893C14.0273 17.7189 12.7998 18.303 11.4925 18.4206C11.3064 18.4366 11.1209 18.4587 10.9349 18.4815C8.52972 18.7731 5.80885 18.0366 4.08455 16.284C3.83197 16.0278 3.59454 15.7586 3.35122 15.4926C2.64286 14.7272 2.38018 13.9543 1.98278 13.0383C1.26825 11.4038 1.19697 9.01326 1.95471 7.36923C2.11104 7.02964 2.22975 6.68669 2.3451 6.33083C2.79974 4.93433 4.50468 3.23277 5.80548 2.5797C6.04599 2.4579 6.29268 2.34592 6.5332 2.2244C7.96225 1.48517 10.0741 1.24241 11.6281 1.66198C12.0516 1.77761 12.4678 1.91232 12.8873 2.02682C13.9033 2.30887 14.5923 2.74163 15.3871 3.41154C16.7342 4.55237 17.7423 5.95561 18.303 7.63219V7.63135Z" fill="#272728"/>
<path d="M7.03275 3.4494C6.60336 3.54875 6.31149 3.66438 6.0039 3.98263C5.75749 4.23886 5.52343 4.50801 5.29919 4.78388C5.09712 5.03338 5.03342 5.17679 5.1743 5.47568C5.4499 6.05942 5.75749 6.62633 6.08107 7.18763C6.27753 7.53058 6.42711 7.65238 6.83068 7.62067C7.24436 7.58811 7.65775 7.55612 8.06778 7.52104C8.39782 7.4955 8.57294 7.40878 8.78259 7.15255C9.38149 6.41276 9.98067 5.66876 10.5801 4.92842C10.9997 4.40641 10.9935 4.3427 10.6026 3.79123C10.2243 3.258 10.1956 3.24004 9.53837 3.2145C8.6965 3.18337 7.85417 3.26234 7.03275 3.4494ZM1.78071 9.37443C1.70626 10.0915 1.73461 10.8155 1.86491 11.5245C1.86641 11.5321 1.87059 11.5389 1.87668 11.5437C1.88277 11.5485 1.89037 11.551 1.89812 11.5507C1.90587 11.5504 1.91326 11.5473 1.91895 11.542C1.92465 11.5368 1.92827 11.5296 1.92918 11.5219C1.96145 11.101 2.00271 10.9576 1.939 10.4965C1.88391 10.1262 1.85269 9.75287 1.84554 9.37864C1.84516 9.37073 1.84187 9.36324 1.83632 9.35759C1.83077 9.35194 1.82333 9.34853 1.81543 9.34801C1.80752 9.34749 1.7997 9.3499 1.79346 9.35477C1.78721 9.35964 1.78298 9.36664 1.78156 9.37443H1.78071ZM17.7897 11.259C18.0911 11.0606 18.1326 10.9576 18.1969 10.5989C18.2898 10.0609 18.2864 9.50297 18.2418 8.95823C18.2067 8.5033 18.0816 8.21171 17.8346 7.82442C17.4728 7.26031 17.0401 6.66703 16.5155 6.24746C16.2049 5.99796 16.1855 5.95559 15.8364 6.15821C15.5417 6.3266 15.5611 6.34344 15.5838 6.68639C15.6604 7.86258 15.5838 9.05506 15.4457 10.2206C15.4202 10.4198 15.4202 10.554 15.5389 10.7176C15.7278 10.9806 15.9136 11.2466 16.0898 11.5189C16.3334 11.8972 16.3589 11.8876 16.7788 11.7748C17.1408 11.676 17.4804 11.4678 17.7911 11.259H17.7897ZM10.2282 18.0495C11.9011 18.3344 13.5578 17.6485 14.9198 16.7195C15.1505 16.559 15.1889 16.559 14.9899 16.4108C14.5737 16.1066 14.4486 16.0106 14.045 16.1358C13.5895 16.2761 13.1315 16.3985 12.667 16.4973C12.3726 16.5615 12.1863 16.648 11.9556 16.8472C11.4302 17.2985 10.8532 17.6962 10.222 17.9878L10.2282 18.0495ZM5.50406 16.3446C5.38563 15.6685 5.42436 14.9924 5.52651 14.3164C5.57451 14.0023 5.5456 13.8954 5.36655 13.6338C5.06121 13.1937 4.78286 12.7355 4.53302 12.2617C4.37305 11.9575 4.26388 11.8612 3.93412 11.7453C3.78341 11.6945 2.3799 11.1762 2.31394 11.2233C2.24013 11.2778 2.23705 11.8192 2.24013 11.9028C2.24687 12.1947 2.30468 12.3639 2.43238 12.6274C2.99676 13.7929 3.67901 14.9088 4.4898 15.9183C4.6276 16.0842 4.6436 16.1105 4.8423 16.1905C4.89365 16.2127 5.53101 16.4712 5.50547 16.344L5.50406 16.3446ZM12.8006 2.33776C12.3555 2.21624 12.179 2.18088 11.7622 2.34758C11.5762 2.42167 10.6503 2.87632 10.6054 3.10112C10.5799 3.2159 10.8041 3.51451 10.865 3.60039C11.2879 4.19705 11.3421 4.26412 12.051 4.48527C13.1144 4.8217 14.134 5.28333 15.0885 5.86045C15.3607 6.02378 15.3972 6.04034 15.6716 5.87644C16.0112 5.67803 15.9663 5.62947 15.8605 5.25481C15.6396 4.48247 14.9187 3.34641 14.1977 2.92852C13.7581 2.67492 13.2887 2.47695 12.8003 2.33916L12.8006 2.33776ZM9.40085 13.4797C9.73763 13.4287 9.82379 13.3706 9.96776 13.0635C10.1956 12.5761 10.4359 12.0956 10.6792 11.6185C10.8075 11.3712 10.8075 11.2051 10.6666 10.9612C10.1085 10.0006 9.49092 9.07584 8.81739 8.19235C8.59287 7.89767 8.45844 7.81487 8.08995 7.84322C7.67655 7.87549 7.26653 7.91086 6.85285 7.94257C6.46556 7.97456 6.31149 8.07391 6.11615 8.41069C5.57142 9.35928 5.09712 10.3556 4.74463 11.394C4.64809 11.6856 4.67728 11.8391 4.82125 12.1116C5.06145 12.5669 5.32805 13.0078 5.61969 13.432C5.80857 13.7045 5.95282 13.7492 6.27977 13.7458C7.32534 13.7356 8.36865 13.6467 9.40085 13.4797ZM13.951 15.826C14.1943 15.7493 14.3228 15.6559 14.4545 15.4381C14.9986 14.5381 15.499 13.5956 15.8832 12.6153C16.0438 12.2081 16.0536 12.0608 15.8094 11.6861C15.641 11.4262 15.4637 11.1697 15.2841 10.9202C15.1881 10.7852 15.0629 10.7799 14.9094 10.808C13.7941 11.0294 12.6662 11.209 11.5416 11.3724C11.2371 11.4178 11.1092 11.4939 10.9683 11.7698C10.7213 12.2469 10.4842 12.7279 10.2568 13.2154C10.1252 13.496 10.135 13.5839 10.3174 13.8367C10.8462 14.5737 11.4005 15.2961 11.9935 15.9809C12.1826 16.202 12.3204 16.2436 12.6025 16.1827C13.0574 16.083 13.5093 15.964 13.9513 15.8265L13.951 15.826ZM6.09062 2.80391C6.04262 2.82328 5.98144 2.85499 5.95899 2.86481C4.764 3.46259 3.18732 5.01345 2.70039 6.30892C2.68749 6.33699 2.72846 6.36505 2.75147 6.34344C3.21498 5.90421 3.73042 5.52326 4.28633 5.20906C4.58077 5.04554 4.84182 4.82809 5.05587 4.56806C5.28282 4.29004 5.5195 4.0209 5.76591 3.76064C6.03842 3.47999 6.16667 3.23246 6.1344 2.83142L6.09062 2.80391ZM5.02977 16.671C5.80857 17.2545 6.69625 17.6715 7.62856 17.928C7.6365 17.9301 7.64493 17.929 7.65212 17.9251C7.65931 17.9211 7.6647 17.9146 7.66719 17.9068C7.66967 17.8989 7.66906 17.8905 7.66548 17.8831C7.66189 17.8757 7.65561 17.87 7.64793 17.8671C7.01675 17.6426 6.42711 17.3154 5.86638 16.8963C5.57815 16.6808 5.38928 16.7164 5.05839 16.6171C5.02668 16.6039 5.00423 16.6522 5.03033 16.671H5.02977Z" fill="white"/>
<circle cx="15" cy="15" r="5" fill="#CC3838"/>
<path d="M17 13L12.9995 17.0005" stroke="white" stroke-linecap="round"/>
<path d="M17 17L12.9995 12.9995" stroke="white" stroke-linecap="round"/>
</svg>
