<svg width="20" height="20" viewBox="0 0 20 20" fill="none" xmlns="http://www.w3.org/2000/svg">
<circle cx="10" cy="10" r="10" fill="#FFCDCD"/>
<path d="M14.8566 7.30947C14.83 7.15636 14.6902 7.05651 14.5371 7.07648C14.5105 7.08314 14.4838 7.0898 14.4639 7.09645L13.2524 7.45591C13.0992 7.48254 12.9994 7.62233 13.0194 7.77543C13.026 7.80206 13.0327 7.82869 13.0393 7.84866C13.066 8.00176 13.2058 8.10161 13.3589 8.08164C13.3855 8.07498 13.4121 8.06833 13.4321 8.06167L14.6436 7.70221C14.7164 7.68977 14.7815 7.64943 14.825 7.58976C14.8685 7.53009 14.887 7.4558 14.8766 7.38269C14.8766 7.36272 14.8699 7.33609 14.8566 7.30947ZM13.279 5.4456C13.1525 5.35241 12.9794 5.37903 12.8929 5.50551C12.8796 5.52548 12.8663 5.55211 12.853 5.57208L12.2539 6.67708C12.1607 6.80356 12.1873 6.97663 12.3138 7.06317C12.3337 7.07648 12.3604 7.0898 12.3803 7.10311C12.5068 7.1963 12.6799 7.16968 12.7664 7.0432C12.7797 7.02323 12.793 6.9966 12.8064 6.97663L13.4121 5.87163C13.5053 5.74515 13.4787 5.57208 13.3522 5.48554C13.3322 5.46557 13.3123 5.45226 13.279 5.4456ZM10.8759 5.13274C10.7228 5.15936 10.623 5.29915 10.6429 5.45226C10.6496 5.47888 10.6563 5.50551 10.6629 5.52548L11.0224 6.73699C11.049 6.8901 11.1888 6.98995 11.3419 6.96998C11.3685 6.96332 11.3951 6.95666 11.4151 6.95001C11.4879 6.93757 11.553 6.89723 11.5965 6.83756C11.64 6.77789 11.6585 6.7036 11.6481 6.63049C11.6414 6.60386 11.6348 6.57723 11.6281 6.55726L11.2687 5.34575C11.242 5.19265 11.1023 5.0928 10.9491 5.11277C10.9292 5.11277 10.9026 5.11942 10.8759 5.13274ZM5.15119 6.93669L6.06316 5.27253C6.1052 5.20168 6.17289 5.14972 6.2522 5.12741C6.33151 5.1051 6.41637 5.11416 6.48918 5.15271L13.1192 8.77393C13.498 8.96599 13.8351 9.23084 14.1114 9.55333C14.3877 9.87582 14.5977 10.2496 14.7294 10.6534C14.8611 11.0571 14.9119 11.4828 14.8789 11.9062C14.8459 12.3296 14.7297 12.7423 14.5371 13.1207C14.345 13.4995 14.0802 13.8367 13.7577 14.1129C13.4352 14.3892 13.0614 14.5992 12.6577 14.7309C12.2539 14.8626 11.8282 14.9134 11.4048 14.8804C10.9815 14.8474 10.5687 14.7313 10.1903 14.5386C9.81154 14.3465 9.47437 14.0817 9.19808 13.7592C8.92178 13.4367 8.71178 13.0629 8.58009 12.6592C8.4484 12.2555 8.3976 11.8297 8.4306 11.4063C8.46361 10.983 8.57976 10.5702 8.77242 10.1918C8.89224 9.95216 9.04534 9.72583 9.22507 9.51948L5.27101 7.36272C5.12457 7.28284 5.07131 7.09645 5.15119 6.93669ZM5.98993 7.03654L9.71101 9.07348L10.3301 9.41297C10.1304 9.53279 9.95065 9.67258 9.79089 9.839C9.55303 10.083 9.36567 10.3716 9.23958 10.6882C9.11348 11.0048 9.05112 11.3432 9.05607 11.684C9.06101 12.0247 9.13317 12.3611 9.26841 12.6739C9.40364 12.9868 9.59929 13.2698 9.84414 13.5068C10.0882 13.7447 10.3768 13.932 10.6934 14.0581C11.01 14.1842 11.3484 14.2466 11.6891 14.2416C12.0299 14.2367 12.3663 14.1645 12.6791 14.0293C12.9919 13.8941 13.2749 13.6984 13.512 13.4536C13.778 13.1806 13.9805 12.8523 14.105 12.4921C14.2296 12.1319 14.273 11.7486 14.2323 11.3697C14.1916 10.9907 14.0678 10.6254 13.8696 10.2998C13.6714 9.97424 13.4039 9.69642 13.0859 9.4862C12.9927 9.42629 12.8929 9.36637 12.7864 9.31312L12.407 9.10677L11.2154 8.46107L6.60234 5.94485C6.52912 5.90491 6.42927 5.93154 6.38933 6.00476L5.93668 6.83684C5.90339 6.91007 5.92336 6.9966 5.98993 7.03654Z" fill="white"/>
<path d="M6.33892 5.67358L5.67325 6.8385L5.50684 7.17133L9.66725 9.50117L8.66875 11.3317L9.33442 13.4952L11.6643 14.6601L13.6613 13.828L14.4933 11.3317L13.3284 9.16833L6.33892 5.67358Z" fill="white"/>
<path d="M11.6483 10.3116C11.9129 10.3116 12.1716 10.3901 12.3916 10.5371C12.6117 10.6842 12.7832 10.8931 12.8844 11.1376C12.9857 11.3821 13.0122 11.6511 12.9606 11.9107C12.9089 12.1702 12.7815 12.4086 12.5944 12.5957C12.4073 12.7829 12.1689 12.9103 11.9093 12.9619C11.6498 13.0135 11.3808 12.987 11.1363 12.8858C10.8918 12.7845 10.6828 12.613 10.5358 12.393C10.3888 12.173 10.3103 11.9143 10.3103 11.6496C10.3103 10.9107 10.9094 10.3116 11.6483 10.3116ZM11.6483 12.3952C12.061 12.3952 12.3938 12.0623 12.3938 11.6496C12.3938 11.2369 12.061 10.9041 11.6483 10.9041C11.2356 10.9041 10.9027 11.2369 10.9027 11.6496C10.9027 12.0623 11.2356 12.3952 11.6483 12.3952ZM14.0846 13.3071C14.5173 13.3071 14.8701 13.6599 14.8701 14.0926C14.8701 14.5253 14.5173 14.8781 14.0846 14.8781C13.6519 14.8781 13.2991 14.5253 13.2991 14.0926C13.2991 13.6599 13.6519 13.3071 14.0846 13.3071ZM14.0846 14.5653C14.3442 14.5653 14.5573 14.3522 14.5573 14.0926C14.5573 13.833 14.3442 13.62 14.0846 13.62C13.825 13.62 13.612 13.833 13.612 14.0926C13.612 14.3522 13.825 14.5653 14.0846 14.5653Z" fill="white"/>
<path d="M11.6483 10.3116C11.913 10.3116 12.1717 10.3901 12.3917 10.5371C12.6117 10.6842 12.7832 10.8931 12.8845 11.1376C12.9857 11.3821 13.0122 11.6511 12.9606 11.9107C12.909 12.1702 12.7816 12.4086 12.5944 12.5957C12.4073 12.7829 12.1689 12.9103 11.9094 12.9619C11.6498 13.0135 11.3808 12.987 11.1363 12.8858C10.8918 12.7845 10.6829 12.613 10.5358 12.393C10.3888 12.173 10.3103 11.9143 10.3103 11.6496C10.3103 10.9107 10.9094 10.3116 11.6483 10.3116ZM11.6483 12.3952C12.0611 12.3952 12.3939 12.0623 12.3939 11.6496C12.3939 11.2369 12.0611 10.9041 11.6483 10.9041C11.2356 10.9041 10.9028 11.2369 10.9028 11.6496C10.9028 12.0623 11.2356 12.3952 11.6483 12.3952Z" fill="#E6E6E8"/>
</svg>
