<svg width="14" height="14" viewBox="0 0 14 14" fill="none" xmlns="http://www.w3.org/2000/svg">
  <g clip-path="url(#clip0_1722_3566)">
    <path d="M13.9465 3.1482C13.9084 2.92904 13.7082 2.7861 13.4889 2.81469C13.4507 2.82422 13.4126 2.83375 13.384 2.84328L11.6488 3.35784C11.4295 3.39596 11.2865 3.59607 11.3151 3.81523C11.3246 3.85335 11.3341 3.89147 11.3437 3.92005C11.3818 4.13922 11.582 4.28216 11.8013 4.25357C11.8394 4.24404 11.8776 4.23451 11.9062 4.22498L13.6414 3.71042C13.7457 3.69261 13.8389 3.63486 13.9012 3.54944C13.9635 3.46403 13.99 3.35768 13.9751 3.25302C13.9751 3.22444 13.9656 3.18632 13.9465 3.1482ZM11.6869 0.480081C11.5057 0.346675 11.2579 0.384791 11.1339 0.565842C11.1148 0.594429 11.0958 0.632545 11.0767 0.661132L10.2186 2.24295C10.0851 2.424 10.1233 2.67175 10.3044 2.79563C10.333 2.81469 10.3712 2.83375 10.3998 2.8528C10.5809 2.98621 10.8288 2.9481 10.9528 2.76704C10.9718 2.73846 10.9909 2.70034 11.01 2.67175L11.8776 1.08994C12.0111 0.908887 11.9729 0.661132 11.7918 0.537255C11.7632 0.508668 11.7346 0.48961 11.6869 0.480081ZM8.24503 0.0322176C8.02574 0.0703336 7.88273 0.270443 7.91133 0.48961C7.92086 0.527726 7.9304 0.565842 7.93993 0.594429L8.45478 2.32871C8.49292 2.54788 8.69314 2.69081 8.91243 2.66222C8.95056 2.6527 8.9887 2.64317 9.0173 2.63364C9.12156 2.61583 9.21476 2.55808 9.27708 2.47267C9.3394 2.38725 9.36592 2.2809 9.351 2.17624C9.34147 2.13813 9.33193 2.10001 9.3224 2.07143L8.80755 0.337146C8.76941 0.117979 8.56919 -0.0249565 8.34991 0.00363053C8.3213 0.00363053 8.28317 0.0131596 8.24503 0.0322176ZM0.0455761 2.61458L1.35177 0.232327C1.41199 0.130905 1.50895 0.0565247 1.62254 0.0245936C1.73614 -0.00733756 1.85767 0.00562811 1.96196 0.0608046L11.4581 5.24459C12.0005 5.51952 12.4835 5.89865 12.8792 6.3603C13.2749 6.82194 13.5757 7.35704 13.7643 7.93498C13.9529 8.51291 14.0257 9.12235 13.9784 9.72841C13.9312 10.3345 13.7648 10.9253 13.4889 11.467C13.2138 12.0092 12.8344 12.4919 12.3725 12.8874C11.9106 13.2829 11.3752 13.5835 10.797 13.772C10.2187 13.9605 9.60897 14.0333 9.00257 13.986C8.39617 13.9388 7.80504 13.7725 7.263 13.4967C6.72052 13.2218 6.2376 12.8426 5.84187 12.381C5.44614 11.9194 5.14536 11.3843 4.95674 10.8063C4.76812 10.2284 4.69537 9.61895 4.74263 9.01288C4.7899 8.40682 4.95626 7.81601 5.23221 7.27427C5.40382 6.93122 5.62311 6.60723 5.88054 6.31184L0.217193 3.22444C0.00743961 3.11009 -0.0688353 2.84328 0.0455761 2.61458ZM1.24689 2.75751L6.57654 5.67339L7.46322 6.15937C7.17719 6.33089 6.91977 6.531 6.69095 6.76923C6.35026 7.11858 6.08192 7.5317 5.90131 7.98491C5.72071 8.43813 5.63139 8.92251 5.63847 9.4103C5.64556 9.89808 5.74891 10.3797 5.94261 10.8275C6.1363 11.2752 6.41653 11.6804 6.76722 12.0197C7.11676 12.3602 7.53011 12.6284 7.98357 12.8089C8.43704 12.9894 8.92169 13.0787 9.40974 13.0716C9.89779 13.0645 10.3796 12.9612 10.8277 12.7676C11.2757 12.5741 11.6811 12.294 12.0206 11.9435C12.4016 11.5528 12.6917 11.0828 12.87 10.5672C13.0484 10.0515 13.1106 9.50284 13.0523 8.96036C12.9941 8.41788 12.8167 7.89494 12.5328 7.42888C12.249 6.96282 11.8658 6.56513 11.4104 6.26419C11.2769 6.17843 11.1339 6.09267 10.9814 6.01644L10.4379 5.72104L8.73128 4.79672L2.12404 1.19476C2.01917 1.13758 1.87615 1.1757 1.81895 1.28052L1.17062 2.47164C1.12295 2.57646 1.15155 2.70034 1.24689 2.75751Z" fill="#CC3838"/>
    <path d="M1.74647 0.806458L0.793044 2.47403L0.554688 2.95048L6.51359 6.28564L5.08346 8.90612L6.03688 12.003L9.37387 13.6706L12.2341 12.4795L13.4259 8.90612L11.7574 5.80919L1.74647 0.806458Z" fill="#CC3838"/>
    <path fill-rule="evenodd" clip-rule="evenodd" d="M14.4656 12.8582C14.4656 11.9625 13.7361 11.2338 12.8405 11.2338C11.9449 11.2338 11.2155 11.9625 11.2155 12.8582C11.2155 13.754 11.9449 14.4827 12.8405 14.4827C13.7361 14.4827 14.4656 13.754 14.4656 12.8582ZM13.9656 12.8582C13.9656 12.2389 13.4603 11.7338 12.8405 11.7338C12.2208 11.7338 11.7155 12.2389 11.7155 12.8582C11.7155 13.4776 12.2208 13.9827 12.8405 13.9827C13.4603 13.9827 13.9656 13.4776 13.9656 12.8582Z" fill="white"/>
    <path d="M12.8405 11.4838C13.5982 11.4838 14.2156 12.1007 14.2156 12.8582C14.2156 13.6158 13.5982 14.2327 12.8405 14.2327C12.0829 14.2327 11.4655 13.6158 11.4655 12.8582C11.4655 12.1007 12.0829 11.4838 12.8405 11.4838ZM12.8405 13.2848C13.0744 13.2848 13.2675 13.0917 13.2675 12.8582C13.2675 12.6248 13.0744 12.4317 12.8405 12.4317C12.6066 12.4317 12.4136 12.6248 12.4136 12.8582C12.4136 13.0917 12.6066 13.2848 12.8405 13.2848Z" fill="#CC3838" stroke="white" stroke-width="0.5"/>
    <path d="M9.35095 7.4458C9.72997 7.4458 10.1005 7.55813 10.4156 7.76859C10.7308 7.97905 10.9764 8.27818 11.1215 8.62817C11.2665 8.97815 11.3045 9.36326 11.2305 9.73479C11.1566 10.1063 10.974 10.4476 10.706 10.7155C10.438 10.9833 10.0966 11.1658 9.72482 11.2397C9.35307 11.3136 8.96775 11.2756 8.61758 11.1307C8.26741 10.9857 7.96811 10.7402 7.75753 10.4252C7.54696 10.1103 7.43457 9.73995 7.43457 9.36113C7.43457 8.30341 8.29265 7.4458 9.35095 7.4458ZM9.35095 10.4284C9.94207 10.4284 10.4188 9.95193 10.4188 9.36113C10.4188 8.77033 9.94207 8.29388 9.35095 8.29388C8.75983 8.29388 8.28311 8.77033 8.28311 9.36113C8.28311 9.95193 8.75983 10.4284 9.35095 10.4284Z" fill="white"/>
  </g>
  <defs>
    <clipPath id="clip0_1722_3566">
      <rect width="14" height="14" fill="white" transform="matrix(-1 0 0 1 13.9924 0)"/>
    </clipPath>
  </defs>
</svg>