<svg width="27" height="26" viewBox="0 0 27 26" fill="none" xmlns="http://www.w3.org/2000/svg">
  <g clip-path="url(#clip0_1695_26591)">
    <path d="M18.5481 5.17006C18.3658 5.17006 18.2125 5.10792 18.0882 4.98364C17.964 4.85936 17.8604 4.71437 17.7775 4.54866C17.6947 4.38295 17.6325 4.21311 17.5911 4.03912C17.5497 3.86513 17.529 3.72013 17.529 3.60414V0.546875H17.5787C17.7278 0.546875 17.8687 0.563446 18.0012 0.596587C18.1338 0.629728 18.2954 0.708438 18.4859 0.832717C18.6765 0.956996 18.9085 1.13099 19.1819 1.35469C19.4553 1.57839 19.7991 1.87252 20.2134 2.23707C20.6608 2.63476 21.0171 2.97032 21.2822 3.24373C21.5473 3.51714 21.7503 3.74913 21.8912 3.93969C22.032 4.13025 22.119 4.29182 22.1522 4.42438C22.1853 4.55695 22.2019 4.67294 22.2019 4.77236V5.17006H18.5481ZM26.2782 16.8771C26.3279 17.0097 26.3611 17.1754 26.3776 17.3743C26.3942 17.5731 26.3114 17.7637 26.1291 17.9459C26.0462 18.0288 25.9717 18.1075 25.9054 18.1821C25.8391 18.2566 25.7811 18.3188 25.7314 18.3685C25.6651 18.4348 25.6071 18.4845 25.5574 18.5176L23.4447 16.4297C23.5441 16.3469 23.6559 16.2475 23.7802 16.1315C23.9045 16.0155 24.0081 15.9243 24.0909 15.8581C24.2898 15.6758 24.5052 15.5971 24.7372 15.6219C24.9691 15.6468 25.1597 15.7006 25.3088 15.7835C25.4745 15.8663 25.6527 16.0113 25.8432 16.2185C26.0338 16.4256 26.1788 16.6452 26.2782 16.8771ZM17.5041 19.1887C17.8687 19.1887 18.1752 19.0893 18.4238 18.8905L13.6018 23.9113H6.74156C6.42672 23.9113 6.08288 23.8202 5.71004 23.6379C5.3372 23.4556 4.98922 23.2154 4.6661 22.9171C4.34297 22.6188 4.0737 22.275 3.85828 21.8856C3.64286 21.4962 3.53516 21.0943 3.53516 20.6801V3.75327C3.53516 3.40529 3.61387 3.04074 3.77129 2.65962C3.92871 2.2785 4.14412 1.93466 4.41754 1.6281C4.69095 1.32155 5.00165 1.0647 5.34963 0.857573C5.69761 0.650441 6.06216 0.546875 6.44329 0.546875H15.9631V3.65385C15.9631 3.96869 16.0128 4.30839 16.1122 4.67294C16.2116 5.03749 16.3649 5.37304 16.572 5.6796C16.7792 5.98615 17.0484 6.243 17.3798 6.45013C17.7113 6.65726 18.1089 6.76083 18.5729 6.76083H22.2019V14.9881L18.7966 18.5176C18.9789 18.2525 19.07 17.9625 19.07 17.6477C19.07 17.2168 18.9168 16.8481 18.6102 16.5416C18.3036 16.235 17.935 16.0818 17.5041 16.0818H8.18319C7.75236 16.0818 7.38781 16.235 7.08954 16.5416C6.79127 16.8481 6.64213 17.2168 6.64213 17.6477C6.64213 18.0785 6.79127 18.4431 7.08954 18.7413C7.38781 19.0396 7.75236 19.1887 8.18319 19.1887H17.5041ZM8.18319 9.8678C7.75236 9.8678 7.38781 10.0211 7.08954 10.3276C6.79127 10.6342 6.64213 11.0029 6.64213 11.4337C6.64213 11.8646 6.79127 12.2291 7.08954 12.5274C7.38781 12.8256 7.75236 12.9748 8.18319 12.9748H17.5041C17.935 12.9748 18.3036 12.8256 18.6102 12.5274C18.9168 12.2291 19.07 11.8646 19.07 11.4337C19.07 11.0029 18.9168 10.6342 18.6102 10.3276C18.3036 10.0211 17.935 9.8678 17.5041 9.8678H8.18319ZM17.5538 22.3206L17.877 21.9974L18.4984 21.376C18.7469 21.1275 19.0203 20.8499 19.3186 20.5434C19.6169 20.2368 19.9151 19.9344 20.2134 19.6361C20.9259 18.9236 21.7296 18.1282 22.6244 17.25L24.7123 19.3379L22.3013 21.7489L21.4065 22.6437L20.5862 23.4639C20.3543 23.6959 20.1595 23.8948 20.0021 24.0605C19.8447 24.2262 19.7577 24.3173 19.7411 24.3339C19.6583 24.4002 19.5672 24.4706 19.4677 24.5452C19.3683 24.6197 19.2689 24.6819 19.1695 24.7316C19.07 24.7813 18.9168 24.8434 18.7096 24.918C18.5025 24.9926 18.2912 25.063 18.0758 25.1293C17.8604 25.1956 17.6533 25.2535 17.4544 25.3033C17.2556 25.353 17.1064 25.3861 17.007 25.4027C16.8082 25.4358 16.6756 25.411 16.6093 25.3281C16.543 25.2453 16.5265 25.1044 16.5596 24.9056C16.5762 24.8061 16.6093 24.657 16.659 24.4582C16.7087 24.2593 16.7667 24.0563 16.833 23.8492C16.8993 23.6421 16.9614 23.4474 17.0194 23.2651C17.0774 23.0828 17.123 22.9585 17.1561 22.8922C17.2556 22.6768 17.3881 22.4863 17.5538 22.3206Z" fill="#2085E2"/>
  </g>
  <defs>
    <clipPath id="clip0_1695_26591">
      <rect width="26" height="26" fill="white" transform="translate(0.404297)"/>
    </clipPath>
  </defs>
</svg>