<svg width="20" height="20" viewBox="0 0 20 20" fill="none" xmlns="http://www.w3.org/2000/svg">
  <path fill-rule="evenodd" clip-rule="evenodd" d="M5.38665 16.9616C5.27077 17.0285 5.15854 17.0937 5.04976 17.1571L5.16198 17.3515L4.73249 17.5995L4.62175 17.4077C4.44576 17.5109 4.27983 17.6081 4.12296 17.6991L4.23239 17.8886L3.8029 18.1366L3.69208 17.9446C2.60249 18.5513 2.00305 18.7444 1.43352 18.2989C0.621411 17.6636 0.615101 16.8813 1.62345 15.3541C2.6318 13.8269 3.25408 12.7527 3.9397 11.1817C4.13251 10.7399 4.36168 10.0893 4.61563 9.36831C5.26472 7.52557 6.07569 5.22326 6.85511 4.77326C7.36102 4.48118 8.05488 4.53767 8.79514 4.59794C9.64155 4.66685 10.5486 4.74069 11.3048 4.30409C11.9416 3.9364 12.3957 3.25046 12.804 2.63358C13.3045 1.87733 13.7364 1.22488 14.3521 1.38987C15.4701 1.68944 16.2886 3.107 16.6978 3.81578C17.107 4.52456 18.7439 7.35969 18.4443 8.47769C18.3073 8.98901 18.0847 9.35207 17.7478 9.67382L17.926 9.98239L17.4965 10.2304L17.3602 9.9943C17.2148 10.1006 17.0544 10.2064 16.8778 10.3161L16.9952 10.5195L16.5657 10.7675L16.4526 10.5715C16.3158 10.6516 16.1712 10.7351 16.0184 10.8233C15.9965 10.836 15.9746 10.8483 15.9527 10.8604L16.0659 11.0564L15.6364 11.3043L15.5014 11.0705C15.0428 11.2481 14.58 11.3285 14.0822 11.4149L14.0822 11.4149C13.2323 11.5624 12.2801 11.7277 11.0719 12.4252C10.4847 12.7643 9.89496 13.3199 9.20403 13.9709C8.54351 14.5932 7.79051 15.3026 6.85887 15.9932L7.02301 16.2775L6.59352 16.5255L6.454 16.2838C6.29812 16.3921 6.13745 16.4995 5.97164 16.6056L6.09226 16.8146L5.66277 17.0625L5.54942 16.8662C5.49568 16.8981 5.44143 16.9299 5.38665 16.9616Z" fill="#EEA24E"/>
  <rect x="6.9314" y="12.4462" width="3.27373" height="1.1458" transform="rotate(-75 6.9314 12.4462)" fill="white"/>
  <rect x="9.76636" y="10.8094" width="3.27373" height="1.1458" transform="rotate(-75 9.76636 10.8094)" fill="white"/>
  <rect x="12.6013" y="9.17255" width="3.27373" height="1.1458" transform="rotate(-75 12.6013 9.17255)" fill="white"/>
  <path fill-rule="evenodd" clip-rule="evenodd" d="M15.2968 13.884H11.7205V15.1931H15.2968V13.884ZM18.3404 16.5419H11.7205V17.851H18.3404V16.5419Z" fill="#EEA24E"/>
</svg>