<svg width="20" height="20" viewBox="0 0 20 20" fill="none" xmlns="http://www.w3.org/2000/svg">
<g clip-path="url(#clip0_1621_13086)">
<path d="M11.4988 2.6375C11.9063 3.78125 12.1912 5.14125 12.335 6.62875C13.52 6.6725 14.64 6.8075 15.6925 7.03375C15.7388 6.73125 15.8075 6.46625 15.8825 6.2425C16.1038 5.5775 16.465 4.99875 16.9288 4.5675C17.2438 4.275 17.5913 4.0625 17.9538 3.93875C17.6824 3.58321 17.3876 3.24621 17.0712 2.93C16.1525 2.01125 15.0837 1.29125 13.8925 0.7875C12.6687 0.26875 11.37 0.00375 10.03 0C10.6163 0.66 11.1088 1.5425 11.4988 2.6375ZM18.625 5.0475C17.9925 5.09875 17.3462 5.75 17.0537 6.63C16.9887 6.825 16.93 7.0625 16.8962 7.3375C17.9825 7.65875 18.9862 8.0875 19.9062 8.62125C19.7876 7.75639 19.5548 6.9111 19.2138 6.1075C19.0582 5.74138 18.8816 5.38454 18.685 5.03875C18.6663 5.0425 18.6462 5.045 18.625 5.0475ZM5.21 4.16375C6.1675 4.69625 6.85 5.53125 7.185 6.58C7.22146 6.69542 7.25356 6.81217 7.28125 6.93C8.335 6.7775 9.35625 6.67875 10.34 6.635C10.5938 6.625 10.845 6.6175 11.0938 6.615C10.9563 5.2825 10.6988 4.07 10.3363 3.0525C9.84125 1.66375 9.15875 0.67125 8.36375 0.18375C8.3425 0.17125 8.32375 0.1575 8.305 0.1425C7.5525 0.27125 6.8175 0.48625 6.1075 0.78625C4.91625 1.29 3.8475 2.01125 2.92875 2.92875C2.74465 3.113 2.56785 3.3044 2.39875 3.5025C3.47625 3.50375 4.42 3.725 5.21 4.16375ZM19.9862 10.1287C19.045 9.48625 18.0225 8.99875 16.9438 8.64375C16.99 8.9 17.0613 9.17125 17.1613 9.45875C17.5713 10.63 18.3825 11.7875 19.5725 12.9025C19.8438 12.01 19.9875 11.0837 20 10.1375C19.9951 10.135 19.9905 10.1321 19.9862 10.1287ZM11.1975 8.12625C11.1938 8.0325 11.19 7.93875 11.1863 7.84625C9.935 7.86125 8.66875 7.975 7.41625 8.15875C7.41375 8.42125 7.39375 8.68875 7.355 8.9625C7.23625 9.80625 6.9475 10.6588 6.49875 11.4988C5.5575 13.2575 3.9975 14.8025 1.98 15.975C2.26875 16.3612 2.585 16.7275 2.93 17.0712C3.84875 17.99 4.9175 18.71 6.10875 19.2138C6.965 19.5763 7.85875 19.8138 8.7775 19.9263C10.435 16.6438 11.34 12.2325 11.1975 8.12625ZM6.05875 7.13C6.04375 7.07125 6.0275 7.0125 6.00875 6.955C5.49125 5.33375 3.88875 4.54 1.61 4.77875C1.5625 4.78375 1.51625 4.78375 1.47 4.7775C1.20883 5.20293 0.980255 5.64754 0.78625 6.1075C0.44 6.9275 0.20625 7.78 0.08875 8.65625C2.16875 7.9825 4.16375 7.4725 6.05875 7.13ZM19.0575 14.1012C17.5413 12.7612 16.5112 11.335 15.9975 9.86625C15.7975 9.2925 15.6925 8.76375 15.6537 8.285C14.6087 8.04625 13.525 7.9125 12.4225 7.865C12.425 7.9375 12.4288 8.01 12.4312 8.0825C12.5025 10.1325 12.3237 12.315 11.9125 14.3975C11.5087 16.4425 10.9037 18.3237 10.1137 20C11.4237 19.985 12.695 19.7213 13.8937 19.215C15.085 18.7113 16.1537 17.99 17.0725 17.0725C17.9263 16.2188 18.61 15.2325 19.1063 14.1412C19.0888 14.1287 19.0725 14.1163 19.0575 14.1012ZM5.41 10.9163C5.86875 10.0588 6.1275 9.17875 6.1725 8.36375C4.05875 8.7525 2.015 9.31875 0.185 9.92375C0.12521 9.94323 0.0628697 9.95376 0 9.955L0 10C0 11.35 0.265 12.66 0.78625 13.8925C0.93875 14.2525 1.11125 14.6025 1.30375 14.94C3.63125 13.6025 4.82125 12.0175 5.41 10.9163Z" fill="#FF9500"/>
</g>
<defs>
<clipPath id="clip0_1621_13086">
<rect width="20" height="20" fill="white"/>
</clipPath>
</defs>
</svg>
