<svg width="20" height="20" viewBox="0 0 20 20" fill="none" xmlns="http://www.w3.org/2000/svg">
  <path d="M17.9475 5.59712C17.904 5.34657 17.6752 5.18317 17.4247 5.21585C17.3811 5.22675 17.3375 5.23764 17.3048 5.24853L15.3222 5.83677C15.0717 5.88035 14.9083 6.10911 14.941 6.35965C14.9519 6.40323 14.9628 6.4468 14.9736 6.47948C15.0172 6.73003 15.246 6.89343 15.4965 6.86075C15.5401 6.84985 15.5837 6.83896 15.6164 6.82807L17.5989 6.23983C17.7181 6.21948 17.8246 6.15346 17.8958 6.05581C17.967 5.95816 17.9973 5.83659 17.9802 5.71695C17.9802 5.68427 17.9693 5.64069 17.9475 5.59712ZM15.3658 2.54699C15.1588 2.39448 14.8756 2.43805 14.734 2.64503C14.7122 2.67771 14.6904 2.72128 14.6686 2.75396L13.6882 4.56225C13.5357 4.76923 13.5793 5.05245 13.7863 5.19407C13.819 5.21585 13.8625 5.23764 13.8952 5.25943C14.1022 5.41193 14.3854 5.36836 14.527 5.16139C14.5488 5.12871 14.5706 5.08513 14.5924 5.05245L15.5837 3.24416C15.7362 3.03719 15.6926 2.75396 15.4856 2.61235C15.453 2.57967 15.4203 2.55788 15.3658 2.54699ZM11.4333 2.035C11.1828 2.07857 11.0194 2.30733 11.052 2.55788C11.0629 2.60145 11.0738 2.64503 11.0847 2.67771L11.673 4.66029C11.7165 4.91084 11.9453 5.07424 12.1958 5.04156C12.2394 5.03067 12.283 5.01977 12.3157 5.00888C12.4348 4.98853 12.5413 4.92251 12.6125 4.82486C12.6837 4.72721 12.714 4.60564 12.6969 4.486C12.686 4.44243 12.6752 4.39885 12.6643 4.36617L12.076 2.38359C12.0324 2.13304 11.8037 1.96964 11.5531 2.00232C11.5205 2.00232 11.4769 2.01321 11.4333 2.035ZM2.06504 4.98709L3.55743 2.26376C3.62624 2.14782 3.73701 2.06279 3.8668 2.02628C3.99659 1.98978 4.13545 2.0046 4.25461 2.06768L15.1044 7.99366C15.7242 8.30795 16.2759 8.74137 16.7281 9.26911C17.1802 9.79685 17.5239 10.4086 17.7394 11.0692C17.9549 11.7299 18.038 12.4266 17.984 13.1195C17.93 13.8123 17.7399 14.4877 17.4247 15.107C17.1104 15.7268 16.6769 16.2786 16.1492 16.7307C15.6215 17.1829 15.0097 17.5265 14.3491 17.742C13.6884 17.9575 12.9917 18.0407 12.2988 17.9866C11.606 17.9326 10.9306 17.7426 10.3113 17.4273C9.69149 17.113 9.13974 16.6796 8.68759 16.1518C8.23545 15.6241 7.89179 15.0124 7.67629 14.3517C7.46078 13.691 7.37765 12.9943 7.43166 12.3015C7.48566 11.6086 7.67574 10.9332 7.99102 10.3139C8.1871 9.92178 8.43765 9.5514 8.73177 9.21371L2.26112 5.68427C2.02147 5.55355 1.93432 5.24853 2.06504 4.98709ZM3.4376 5.15049L9.52698 8.48386L10.5401 9.03942C10.2133 9.2355 9.91914 9.46426 9.6577 9.73659C9.26845 10.136 8.96186 10.6082 8.75551 11.1263C8.54916 11.6444 8.4471 12.1982 8.4552 12.7558C8.4633 13.3134 8.58138 13.864 8.80269 14.3759C9.02399 14.8877 9.34417 15.3509 9.74485 15.7388C10.1442 16.1281 10.6165 16.4347 11.1346 16.641C11.6527 16.8474 12.2064 16.9494 12.7641 16.9413C13.3217 16.9332 13.8722 16.8151 14.3841 16.5938C14.896 16.3725 15.3592 16.0524 15.7471 15.6517C16.1824 15.205 16.5138 14.6678 16.7176 14.0783C16.9214 13.4888 16.9925 12.8616 16.9259 12.2414C16.8593 11.6213 16.6566 11.0235 16.3324 10.4907C16.0081 9.9579 15.5702 9.50327 15.0499 9.15924C14.8974 9.0612 14.734 8.96316 14.5597 8.87602L13.9388 8.53832L11.9889 7.48167L4.43979 3.36399C4.31997 3.29863 4.15657 3.3422 4.09121 3.46203L3.35046 4.82369C3.29599 4.94352 3.32867 5.08513 3.4376 5.15049Z" fill="#CC3838"/>
  <path d="M4.00815 2.92004L2.91882 4.82638L2.64648 5.37105L9.45482 9.18371L7.82082 12.1794L8.91015 15.7197L12.7228 17.6261L15.9908 16.2644L17.3525 12.1794L15.4462 8.63905L4.00815 2.92004Z" fill="#CC3838"/>
  <path d="M12.6961 10.51C13.1292 10.51 13.5525 10.6384 13.9126 10.879C14.2727 11.1196 14.5533 11.4616 14.719 11.8617C14.8847 12.2618 14.9281 12.702 14.8436 13.1267C14.7591 13.5515 14.5506 13.9416 14.2444 14.2478C13.9382 14.554 13.548 14.7626 13.1233 14.8471C12.6986 14.9315 12.2583 14.8882 11.8582 14.7225C11.4581 14.5567 11.1162 14.2761 10.8756 13.916C10.635 13.556 10.5066 13.1326 10.5066 12.6996C10.5066 11.4904 11.487 10.51 12.6961 10.51ZM12.6961 13.9196C13.3715 13.9196 13.9162 13.375 13.9162 12.6996C13.9162 12.0242 13.3715 11.4795 12.6961 11.4795C12.0207 11.4795 11.4761 12.0242 11.4761 12.6996C11.4761 13.375 12.0207 13.9196 12.6961 13.9196ZM16.6831 15.412C17.3912 15.412 17.9685 15.9894 17.9685 16.6974C17.9685 17.4055 17.3912 17.9828 16.6831 17.9828C15.975 17.9828 15.3977 17.4055 15.3977 16.6974C15.3977 15.9894 15.975 15.412 16.6831 15.412ZM16.6831 17.4709C17.1079 17.4709 17.4565 17.1223 17.4565 16.6974C17.4565 16.2726 17.1079 15.924 16.6831 15.924C16.2583 15.924 15.9097 16.2726 15.9097 16.6974C15.9097 17.1223 16.2583 17.4709 16.6831 17.4709Z" fill="#CC3838"/>
  <path d="M12.6969 10.51C13.13 10.51 13.5533 10.6384 13.9134 10.879C14.2734 11.1196 14.5541 11.4616 14.7198 11.8617C14.8855 12.2618 14.9289 12.702 14.8444 13.1267C14.7599 13.5515 14.5514 13.9416 14.2452 14.2478C13.939 14.554 13.5488 14.7626 13.1241 14.8471C12.6993 14.9315 12.2591 14.8882 11.859 14.7225C11.4589 14.5567 11.117 14.2761 10.8764 13.916C10.6358 13.556 10.5074 13.1326 10.5074 12.6996C10.5074 11.4904 11.4878 10.51 12.6969 10.51ZM12.6969 13.9196C13.3723 13.9196 13.917 13.375 13.917 12.6996C13.917 12.0242 13.3723 11.4795 12.6969 11.4795C12.0215 11.4795 11.4769 12.0242 11.4769 12.6996C11.4769 13.375 12.0215 13.9196 12.6969 13.9196Z" fill="white"/>
</svg>