<svg width="20" height="20" viewBox="0 0 20 20" fill="none" xmlns="http://www.w3.org/2000/svg">
<circle cx="10" cy="10" r="10" fill="#FFCDCD"/>
<path d="M9.20556 6.52655V13.4735C9.20541 13.6051 9.15308 13.7312 9.06005 13.8242C8.96703 13.9173 8.8409 13.9696 8.70934 13.9697H7.71692C7.58536 13.9696 7.45923 13.9173 7.3662 13.8242C7.27318 13.7312 7.22085 13.6051 7.2207 13.4735V6.52655C7.22085 6.39499 7.27318 6.26886 7.3662 6.17584C7.45923 6.08281 7.58536 6.03048 7.71692 6.03033H8.70934C8.8409 6.03048 8.96703 6.08281 9.06005 6.17584C9.15308 6.26886 9.20541 6.39499 9.20556 6.52655ZM12.2821 6.03033H11.2897C11.1581 6.03048 11.032 6.08281 10.9389 6.17584C10.8459 6.26886 10.7936 6.39499 10.7934 6.52655V13.4735C10.7936 13.6051 10.8459 13.7312 10.9389 13.8242C11.032 13.9173 11.1581 13.9696 11.2897 13.9697H12.2821C12.4136 13.9696 12.5398 13.9173 12.6328 13.8242C12.7258 13.7312 12.7781 13.6051 12.7783 13.4735V6.52655C12.7781 6.39499 12.7258 6.26886 12.6328 6.17584C12.5398 6.08281 12.4136 6.03048 12.2821 6.03033Z" fill="#CC3838"/>
</svg>
