<svg width="11" height="12" viewBox="0 0 11 12" fill="none" xmlns="http://www.w3.org/2000/svg">
<g filter="url(#filter0_b_4219_25156)">
<path d="M5.59772 11.65C2.51972 11.65 0.0117188 9.14203 0.0117188 6.06403C0.0117188 2.98603 2.51972 0.478027 5.59772 0.478027C7.51772 0.478027 9.28172 1.44403 10.3137 3.07003C10.4817 3.33403 10.4037 3.69403 10.1397 3.86203C10.0113 3.94266 9.85626 3.9696 9.70812 3.93706C9.55998 3.90451 9.43056 3.81508 9.34772 3.68803C8.94786 3.05571 8.39407 2.53521 7.73821 2.17527C7.08234 1.81533 6.34586 1.62773 5.59772 1.63003C3.14972 1.63003 1.15772 3.62203 1.15772 6.07003C1.15772 8.51803 3.14972 10.51 5.59772 10.51C6.47089 10.5104 7.32479 10.2534 8.05262 9.771C8.78045 9.28862 9.34989 8.60235 9.68972 7.79803C9.81572 7.50403 10.1517 7.37203 10.4397 7.49203C10.7337 7.61803 10.8657 7.95403 10.7457 8.24203C10.3182 9.25365 9.60174 10.1166 8.68599 10.7229C7.77024 11.3291 6.69595 11.6516 5.59772 11.65Z" fill="url(#paint0_linear_4219_25156)"/>
<path d="M5.59772 11.53H5.59789C6.67251 11.5316 7.72369 11.216 8.61975 10.6228C9.51569 10.0297 10.2167 9.18539 10.635 8.19569C10.7297 7.9682 10.6256 7.70261 10.393 7.60257C10.1655 7.50812 9.90004 7.61234 9.80014 7.84501C9.45111 8.67096 8.86633 9.37567 8.11891 9.87102C7.37141 10.3664 6.49443 10.6304 5.59766 10.63M5.59772 11.53L9.34772 3.68803M5.59772 11.53C2.58599 11.53 0.131719 9.07575 0.131719 6.06403C0.131719 3.0523 2.58599 0.598027 5.59772 0.598027C7.47673 0.598027 9.20247 1.54309 10.2124 3.13433L10.2125 3.13445C10.3452 3.34308 10.2828 3.62852 10.0756 3.76062M5.59772 11.53L10.1397 3.86203M5.59766 10.63L5.59772 10.51L5.59766 10.63ZM5.59766 10.63C3.08339 10.63 1.03772 8.5843 1.03772 6.07003C1.03772 3.55581 3.08335 1.51012 5.59754 1.51003M5.59754 1.51003C6.36592 1.5077 7.12233 1.70039 7.79594 2.07007C8.46934 2.43963 9.03798 2.97398 9.44865 3.62312M5.59754 1.51003C5.5976 1.51003 5.59766 1.51003 5.59772 1.51003V1.63003L5.59735 1.51003C5.59741 1.51003 5.59748 1.51003 5.59754 1.51003ZM9.44865 3.62312C9.44881 3.62337 9.44898 3.62363 9.44914 3.62389L9.34772 3.68803M9.44865 3.62312C9.44851 3.62291 9.44838 3.6227 9.44824 3.62249L9.34772 3.68803M9.44865 3.62312C9.51432 3.72348 9.61671 3.79411 9.73387 3.81985C9.85114 3.84561 9.97382 3.82434 10.0756 3.76062M9.34772 3.68803C9.43056 3.81508 9.55998 3.90451 9.70812 3.93706C9.85626 3.9696 10.0113 3.94266 10.1397 3.86203M10.0756 3.76062C10.0755 3.76067 10.0754 3.76073 10.0753 3.76079L10.1397 3.86203M10.0756 3.76062C10.0757 3.76054 10.0758 3.76046 10.0759 3.76039L10.1397 3.86203" stroke="url(#paint1_linear_4219_25156)" stroke-width="0.24"/>
</g>
<g filter="url(#filter1_b_4219_25156)">
<path d="M9.8218 3.95214H7.2718C7.11904 3.95214 6.97253 3.89146 6.86451 3.78343C6.75649 3.67541 6.6958 3.52891 6.6958 3.37614C6.6958 3.22338 6.75649 3.07687 6.86451 2.96885C6.97253 2.86083 7.11904 2.80014 7.2718 2.80014C8.36532 2.80014 9.2518 1.91366 9.2518 0.820141C9.2518 0.667376 9.31249 0.520868 9.42051 0.412847C9.52853 0.304826 9.67504 0.244141 9.8278 0.244141C9.98057 0.244141 10.1271 0.304826 10.2351 0.412847C10.3431 0.520868 10.4038 0.667376 10.4038 0.820141V3.37614C10.3918 3.69414 10.1398 3.95214 9.8218 3.95214Z" fill="url(#paint2_linear_4219_25156)"/>
<path d="M9.8218 3.83214L7.2718 3.83214C7.15086 3.83214 7.03488 3.7841 6.94936 3.69858C6.86384 3.61306 6.8158 3.49708 6.8158 3.37614C6.8158 3.2552 6.86384 3.13922 6.94936 3.0537C7.03488 2.96818 7.15086 2.92014 7.2718 2.92014C8.4316 2.92014 9.3718 1.97994 9.3718 0.820141C9.3718 0.699202 9.41984 0.583217 9.50536 0.4977C9.59088 0.412183 9.70686 0.364141 9.8278 0.364141C9.94874 0.364141 10.0647 0.412183 10.1502 0.4977C10.2358 0.583217 10.2838 0.699202 10.2838 0.820141V3.37375C10.273 3.63049 10.0705 3.83214 9.8218 3.83214Z" stroke="url(#paint3_linear_4219_25156)" stroke-width="0.24"/>
</g>
<defs>
<filter id="filter0_b_4219_25156" x="-4.41905" y="-3.95274" width="19.6397" height="20.0336" filterUnits="userSpaceOnUse" color-interpolation-filters="sRGB">
<feFlood flood-opacity="0" result="BackgroundImageFix"/>
<feGaussianBlur in="BackgroundImageFix" stdDeviation="2.21538"/>
<feComposite in2="SourceAlpha" operator="in" result="effect1_backgroundBlur_4219_25156"/>
<feBlend mode="normal" in="SourceGraphic" in2="effect1_backgroundBlur_4219_25156" result="shape"/>
</filter>
<filter id="filter1_b_4219_25156" x="2.26503" y="-4.18663" width="12.5695" height="12.5695" filterUnits="userSpaceOnUse" color-interpolation-filters="sRGB">
<feFlood flood-opacity="0" result="BackgroundImageFix"/>
<feGaussianBlur in="BackgroundImageFix" stdDeviation="2.21538"/>
<feComposite in2="SourceAlpha" operator="in" result="effect1_backgroundBlur_4219_25156"/>
<feBlend mode="normal" in="SourceGraphic" in2="effect1_backgroundBlur_4219_25156" result="shape"/>
</filter>
<linearGradient id="paint0_linear_4219_25156" x1="6.07443" y1="12.2086" x2="8.42996" y2="0.278093" gradientUnits="userSpaceOnUse">
<stop stop-color="white"/>
<stop offset="1" stop-color="white" stop-opacity="0.2"/>
</linearGradient>
<linearGradient id="paint1_linear_4219_25156" x1="9.44261" y1="8.85703" x2="7.92772" y2="11.9018" gradientUnits="userSpaceOnUse">
<stop stop-color="white"/>
<stop offset="1" stop-color="white" stop-opacity="0"/>
</linearGradient>
<linearGradient id="paint2_linear_4219_25156" x1="8.78155" y1="4.13754" x2="9.53776" y2="0.167465" gradientUnits="userSpaceOnUse">
<stop stop-color="white"/>
<stop offset="1" stop-color="white" stop-opacity="0.2"/>
</linearGradient>
<linearGradient id="paint3_linear_4219_25156" x1="9.9403" y1="3.02514" x2="9.44847" y2="4.04978" gradientUnits="userSpaceOnUse">
<stop stop-color="white"/>
<stop offset="1" stop-color="white" stop-opacity="0"/>
</linearGradient>
</defs>
</svg>
