<svg width="12" height="12" viewBox="0 0 12 12" fill="none" xmlns="http://www.w3.org/2000/svg">
<g id="icon/zaopan">
<g id="Group">
<path id="&#229;&#189;&#162;&#231;&#138;&#182;&#231;&#187;&#147;&#229;&#144;&#136;" fill-rule="evenodd" clip-rule="evenodd" d="M2 1V1.5C2 2.32843 2.67157 3 3.5 3C4.2797 3 4.92045 2.40511 4.99313 1.64446L5 1.5V1H7V1.5C7 2.2797 7.59489 2.92045 8.35554 2.99313L8.5 3C9.2797 3 9.92045 2.40511 9.99313 1.64446L10 1.5V1H11C11.5523 1 12 1.44772 12 2V11C12 11.5523 11.5523 12 11 12H1C0.447715 12 0 11.5523 0 11V2C0 1.44772 0.447715 1 1 1H2ZM10.4 4H1.6C1.30177 4 1.05435 4.21759 1.00785 4.50268L1 4.6V10.4C1 10.6982 1.21759 10.9456 1.50268 10.9921L1.6 11H10.4C10.6982 11 10.9456 10.7824 10.9921 10.4973L11 10.4V4.6C11 4.26863 10.7314 4 10.4 4ZM8.66806 5.55298L8.94363 5.81199C9.01879 5.88263 9.01879 6.00037 8.94363 6.07101L5.39875 9.43819C5.32359 9.5206 5.19833 9.5206 5.12317 9.43819L3.05637 7.48381C2.98121 7.41317 2.98121 7.29544 3.05637 7.2248L3.33194 6.96578C3.4071 6.89514 3.53236 6.89514 3.60752 6.96578L5.16075 8.43745C5.21086 8.48455 5.29854 8.48455 5.34864 8.43745L8.39248 5.55298C8.46764 5.48234 8.5929 5.48234 8.66806 5.55298ZM3.5 0C3.77614 0 4 0.223858 4 0.5V1.5C4 1.77614 3.77614 2 3.5 2C3.22386 2 3 1.77614 3 1.5V0.5C3 0.223858 3.22386 0 3.5 0ZM8.5 0C8.77614 0 9 0.223858 9 0.5V1.5C9 1.77614 8.77614 2 8.5 2C8.22386 2 8 1.77614 8 1.5V0.5C8 0.223858 8.22386 0 8.5 0Z" fill="#FEBE55"/>
</g>
</g>
</svg>
